<?xml version="1.0" standalone="no"?> <!DOCTYPE svg PUBLIC "-//W3C//DTD SVG 20010904//EN" "http://www.w3.org/TR/2001/REC-SVG-20010904/DTD/svg10.dtd"> <svg version="1.0" xmlns="http://www.w3.org/2000/svg" width="225.000000pt" height="225.000000pt" viewBox="0 0 225.000000 225.000000" preserveAspectRatio="xMidYMid meet"> <g transform="translate(0.000000,225.000000) scale(0.100000,-0.100000)" fill="#fb0909" stroke="none"> <path d="M1018 2179 c-34 -13 -47 -58 -22 -76 18 -13 38 -8 29 7 -13 21 140 24 219 4 23 -5 24 -4 17 23 -4 15 -18 34 -32 40 -28 15 -172 16 -211 2z"/> <path d="M1221 2088 c-1 -63 0 -72 12 -80 14 -9 21 -8 -116 -11 -64 -1 -108 2 -111 8 -3 9 -6 -45 -22 -357 -6 -115 -6 -121 11 -105 15 15 34 17 139 15 121 -3 121 -3 124 -28 2 -14 11 -33 19 -42 8 -9 12 -22 8 -28 -3 -6 -3 -9 2 -8 5 2 29 -17 54 -40 l44 -44 1 -136 c0 -76 -1 -103 -3 -61 l-4 76 -72 14 c-92 18 -316 16 -377 -3 l-45 -14 -2 -71 -2 -70 42 15 c53 19 331 22 393 4 37 -11 91 -52 68 -52 -5 0 -10 -125 -12 -288 -3 -250 -6 -289 -20 -300 -11 -8 -12 -12 -3 -12 8 0 11 -8 8 -20 -3 -11 -1 -20 4 -20 5 0 9 -8 8 -17 0 -11 -3 -13 -6 -5 -8 21 -21 13 -19 -13 0 -14 7 -25 15 -25 11 0 9 -4 -5 -16 -10 -8 -13 -12 -5 -8 11 5 13 3 8 -10 -4 -10 -2 -27 5 -39 14 -27 23 -151 9 -143 -5 3 -7 -3 -4 -14 3 -12 0 -20 -6 -20 -7 0 -9 -5 -6 -10 5 -7 -69 -10 -232 -9 -213 1 -239 3 -241 18 -11 69 -12 162 -3 156 6 -3 11 -3 10 2 -1 4 0 10 1 13 10 25 9 65 -2 71 -10 7 -9 9 5 9 10 0 17 8 17 21 0 13 -4 18 -12 13 -9 -5 -9 -2 1 9 12 15 11 17 -5 18 -18 0 -18 1 1 9 13 6 15 9 5 9 -13 1 -13 2 0 11 8 5 11 10 5 10 -6 0 -10 69 -10 188 0 103 -4 199 -8 213 -6 24 -4 26 18 21 28 -5 35 14 8 21 -13 3 -10 5 7 6 22 1 23 3 7 12 -10 6 -24 9 -31 6 -9 -4 -12 13 -11 67 1 39 -1 76 -5 81 -5 6 -10 19 -13 30 -3 11 -2 -156 1 -370 4 -352 3 -396 -13 -450 -20 -68 -16 -152 9 -190 17 -25 39 -31 138 -38 47 -3 56 -1 47 10 -9 11 5 13 81 13 95 0 110 -7 43 -20 -21 -4 7 -5 62 -2 118 6 142 13 155 47 13 34 14 152 1 194 -6 19 -9 37 -7 40 2 3 7 177 10 386 3 209 9 437 12 506 l6 126 -50 56 c-28 31 -59 68 -68 82 -19 30 -19 24 -33 285 -7 107 -14 210 -17 228 -3 19 -1 32 6 32 5 0 10 7 10 15 0 8 -6 12 -14 9 -11 -4 -13 0 -9 15 3 12 1 21 -5 21 -6 0 -11 -10 -11 -22z m-103 -119 c2 7 10 6 23 -2 15 -9 23 -9 39 1 12 7 24 10 29 8 4 -3 11 -76 15 -163 3 -87 9 -175 12 -195 6 -38 6 -38 -27 -37 -28 0 -31 2 -14 9 25 11 24 11 -57 14 -51 2 -68 -1 -68 -11 0 -7 -11 -13 -24 -13 l-24 0 2 118 c0 64 6 121 11 125 6 6 6 10 -3 14 -6 2 -10 8 -8 12 3 4 6 34 7 68 l2 60 41 -9 c27 -6 42 -6 44 1z m52 -731 c7 -18 9 -19 9 -5 2 36 21 15 21 -23 0 -29 -4 -40 -15 -40 -8 0 -16 8 -16 18 -1 16 -2 16 -6 0 -8 -32 -23 -19 -23 20 0 34 6 52 17 52 2 0 8 -10 13 -22z m-181 -10 c2 49 31 1 31 -52 0 -18 -40 -14 -41 4 0 9 -4 6 -9 -7 -15 -37 -22 -26 -15 20 10 56 18 67 26 37 7 -24 7 -24 8 -2z m66 -20 c0 -23 -5 -43 -11 -45 -6 -2 -9 14 -8 39 3 52 2 48 12 48 4 0 7 -19 7 -42z m63 14 c-1 -15 1 -33 6 -40 4 -7 1 -12 -8 -12 -9 0 -16 6 -17 13 0 10 -2 10 -6 0 -10 -27 -23 -11 -23 27 0 36 2 40 25 40 22 0 25 -4 23 -28z m142 -18 c0 -41 -2 -45 -22 -42 -19 2 -24 10 -26 46 -3 39 -1 42 22 42 24 0 26 -3 26 -46z m50 25 c0 -5 -6 -9 -12 -9 -9 0 -8 -4 2 -11 11 -8 12 -12 3 -16 -7 -2 -13 -14 -13 -24 0 -11 -4 -17 -10 -14 -11 7 -14 78 -4 88 8 8 34 -3 34 -14z m-370 -5 c0 -8 -4 -12 -10 -9 -5 3 -10 1 -10 -4 0 -6 5 -11 10 -11 6 0 10 -11 10 -25 0 -14 -2 -25 -4 -25 -2 0 -12 -3 -20 -6 -12 -5 -15 -2 -10 10 3 9 10 13 15 10 5 -3 9 0 9 5 0 6 -4 11 -10 11 -5 0 -10 11 -10 24 0 20 6 29 28 35 1 1 2 -6 2 -15z m410 -5 c0 -5 -5 -9 -11 -9 -8 0 -8 -5 1 -15 10 -11 10 -15 0 -15 -6 0 -10 -6 -7 -12 2 -7 9 -12 15 -11 6 2 9 -4 5 -13 -4 -12 -8 -12 -13 -4 -4 7 -12 10 -18 6 -6 -3 -9 1 -7 11 2 10 4 32 4 50 1 25 5 31 16 27 8 -4 15 -10 15 -15z"/> <path d="M1100 1925 c-10 -13 -9 -18 7 -33 12 -9 23 -26 26 -37 4 -13 5 -10 4 9 -1 16 4 31 11 33 8 3 12 -8 12 -36 0 -40 -1 -41 -35 -41 -34 0 -35 1 -35 40 0 22 -4 40 -9 40 -14 0 -23 -37 -16 -60 4 -13 2 -20 -7 -21 -7 0 -5 -4 6 -8 17 -7 17 -8 2 -23 -12 -13 -13 -17 -2 -21 9 -4 12 -15 8 -32 -3 -20 -7 -23 -13 -13 -6 9 -9 9 -9 1 0 -6 5 -15 10 -18 6 -4 8 -11 5 -16 -4 -5 1 -16 9 -25 19 -19 21 -34 4 -34 -9 0 -8 -4 2 -10 25 -16 39 -12 33 10 -7 26 4 25 27 -2 l19 -23 -4 25 c-4 24 -4 24 10 6 14 -18 15 -18 15 -2 0 9 4 15 9 12 5 -4 7 4 3 16 -5 21 -6 21 -13 2 -6 -14 -8 -15 -8 -3 -1 9 2 19 7 23 9 10 9 216 0 210 -5 -3 -8 2 -8 10 0 16 -9 20 -45 17 -17 -2 -17 0 -5 8 8 6 10 11 4 11 -6 0 -17 -7 -24 -15z m14 -155 c-5 -24 -3 -30 11 -30 14 0 16 6 11 31 -4 22 -2 29 7 27 6 -3 13 -21 15 -41 3 -34 1 -38 -28 -43 -44 -9 -47 -24 -6 -24 46 0 47 -17 2 -22 -41 -5 -44 2 -38 80 3 36 8 52 18 52 10 0 12 -8 8 -30z"/> <path d="M992 2070 c3 -21 9 -25 38 -28 l35 -2 -30 16 c-16 9 -34 22 -38 28 -4 6 -7 0 -5 -14z"/> <path d="M1055 2070 c-4 -6 18 -10 59 -10 37 0 66 4 66 10 0 6 -26 10 -59 10 -33 0 -63 -4 -66 -10z"/> <path d="M968 1510 c-2 -4 -29 -35 -60 -69 l-58 -62 0 -69 c0 -39 4 -70 9 -70 14 0 18 41 8 70 -11 30 9 93 22 72 6 -10 17 -3 39 23 18 20 32 39 32 43 0 4 -13 -9 -30 -28 -16 -19 -32 -32 -35 -29 -6 7 107 115 118 111 4 -1 7 2 7 7 0 11 -48 11 -52 1z"/> <path d="M950 915 c0 -74 3 -135 8 -135 4 0 6 58 4 130 -2 86 0 130 7 130 7 0 11 -45 11 -130 0 -78 4 -130 10 -130 6 0 9 53 7 135 -2 133 -2 135 -24 135 -23 0 -23 -1 -23 -135z"/> <path d="M1033 1043 c-9 -3 -13 -36 -13 -117 0 -74 4 -118 13 -129 13 -17 116 -30 138 -16 11 6 16 76 6 85 -6 6 -47 -8 -47 -16 0 -5 9 -6 21 -3 18 5 20 2 17 -23 -3 -28 -5 -29 -65 -32 -75 -3 -75 -4 -71 143 l3 100 65 0 c63 0 65 -1 68 -27 4 -33 -23 -39 -33 -8 -7 22 -26 25 -54 10 -16 -8 -18 -22 -17 -101 1 -98 6 -106 51 -88 18 7 17 8 -7 8 -31 1 -35 18 -30 114 3 43 7 57 19 57 9 0 21 -7 27 -15 6 -8 22 -16 35 -17 21 -3 24 1 24 28 1 16 -3 35 -7 42 -7 12 -117 16 -143 5z"/> <path d="M1210 917 c0 -74 2 -136 4 -138 2 -2 27 -2 55 -1 39 3 51 8 51 20 0 11 -3 13 -8 6 -4 -6 -26 -11 -49 -13 l-43 -2 0 125 0 125 58 4 57 3 -62 2 -63 2 0 -133z"/> <path d="M1250 970 c0 -32 4 -40 18 -40 10 0 23 -5 29 -11 7 -7 12 -6 16 5 5 12 0 16 -23 16 -26 0 -29 4 -28 25 2 25 8 29 40 26 9 -1 19 3 23 9 4 6 -9 10 -34 10 l-41 0 0 -40z"/> <path d="M1250 860 l0 -40 43 2 c41 1 41 1 6 5 -32 4 -36 7 -37 34 0 22 3 29 13 25 8 -3 17 -1 20 4 4 6 -5 10 -19 10 -24 0 -26 -4 -26 -40z"/> <path d="M950 730 c0 -13 7 -20 20 -20 13 0 20 7 20 20 0 13 -7 20 -20 20 -13 0 -20 -7 -20 -20z"/> <path d="M1000 730 c0 -31 49 -18 50 13 0 4 -11 7 -25 7 -19 0 -25 -5 -25 -20z"/> <path d="M1087 730 c-4 -17 0 -20 25 -20 23 0 29 4 24 16 -3 9 -6 18 -6 20 0 15 -39 0 -43 -16z"/> <path d="M1211 743 c0 -6 -10 -9 -21 -6 -15 4 -20 1 -19 -13 0 -12 3 -14 6 -6 4 10 8 10 19 1 18 -15 27 -7 21 18 -3 10 -5 13 -6 6z"/> <path d="M1224 633 c1 -26 5 -33 21 -33 14 0 16 3 7 8 -8 5 -10 16 -6 27 5 12 4 16 -3 12 -6 -4 -13 -1 -16 5 -2 7 -4 -2 -3 -19z"/> <path d="M1036 599 c-22 -55 -14 -61 12 -9 11 22 16 42 12 45 -4 3 -15 -14 -24 -36z"/> <path d="M1080 601 c0 -12 -7 -21 -15 -21 -8 0 -15 -6 -15 -14 0 -12 7 -12 53 0 77 20 85 19 80 -13 l-4 -28 15 30 15 30 -5 -35 -4 -35 10 33 c7 22 7 38 1 50 -6 9 -11 13 -11 7 0 -12 -60 -13 -77 -2 -9 6 -11 3 -6 -9 4 -11 3 -15 -4 -11 -6 4 -14 1 -17 -5 -4 -7 -4 -3 -2 9 2 13 0 26 -5 29 -5 3 -9 -4 -9 -15z"/> <path d="M1080 469 c0 -5 23 -9 50 -9 28 0 50 4 50 10 0 5 -22 9 -50 9 -27 -1 -50 -6 -50 -10z"/> <path d="M968 443 c18 -2 45 -2 60 0 15 2 0 4 -33 4 -33 0 -45 -2 -27 -4z"/> <path d="M1238 443 c18 -2 45 -2 60 0 15 2 0 4 -33 4 -33 0 -45 -2 -27 -4z"/> <path d="M944 393 c11 -12 186 -15 186 -3 0 6 -36 10 -97 10 -53 0 -93 -3 -89 -7z"/> <path d="M1140 388 c0 -10 54 -9 130 2 49 7 46 7 -37 7 -51 0 -93 -4 -93 -9z"/> <path d="M1078 353 c23 -2 61 -2 85 0 23 2 4 4 -43 4 -47 0 -66 -2 -42 -4z"/> </g> </svg>

